<?xml version="1.0" encoding="UTF-8" standalone="no"?>
<!-- Generator: Adobe Illustrator 16.0.0, SVG Export Plug-In . SVG Version: 6.00 Build 0)  -->

<svg
   xmlns:dc="http://purl.org/dc/elements/1.1/"
   xmlns:cc="http://creativecommons.org/ns#"
   xmlns:rdf="http://www.w3.org/1999/02/22-rdf-syntax-ns#"
   xmlns:svg="http://www.w3.org/2000/svg"
   xmlns="http://www.w3.org/2000/svg"
   xmlns:sodipodi="http://sodipodi.sourceforge.net/DTD/sodipodi-0.dtd"
   xmlns:inkscape="http://www.inkscape.org/namespaces/inkscape"
   version="1.1"
   id="Capa_1"
   x="0px"
   y="0px"
   width="456.05px"
   height="456.05px"
   viewBox="0 0 456.05 456.05"
   style="enable-background:new 0 0 456.05 456.05;"
   xml:space="preserve"
   sodipodi:docname="wdtmon3_lite.svg"
   inkscape:export-filename="/Users/yamaoka/Programs/smallprojects/wdtmon3/wdtmon3-512.png"
   inkscape:export-xdpi="107.77766"
   inkscape:export-ydpi="107.77766"
   inkscape:version="0.92.2 (5c3e80d, 2017-08-06)"><metadata
     id="metadata3798"><rdf:RDF><cc:Work
         rdf:about=""><dc:format>image/svg+xml</dc:format><dc:type
           rdf:resource="http://purl.org/dc/dcmitype/StillImage" /><dc:title></dc:title></cc:Work></rdf:RDF></metadata><defs
     id="defs3796" /><sodipodi:namedview
     pagecolor="#ffffff"
     bordercolor="#666666"
     borderopacity="1"
     objecttolerance="10"
     gridtolerance="10"
     guidetolerance="10"
     inkscape:pageopacity="0"
     inkscape:pageshadow="2"
     inkscape:window-width="1912"
     inkscape:window-height="1015"
     id="namedview3794"
     showgrid="false"
     inkscape:zoom="0.4730841"
     inkscape:cx="-21.433422"
     inkscape:cy="115.34795"
     inkscape:window-x="0"
     inkscape:window-y="0"
     inkscape:window-maximized="0"
     inkscape:current-layer="Capa_1" /><g
     id="g3763" /><g
     id="g3765" /><g
     id="g3767" /><g
     id="g3769" /><g
     id="g3771" /><g
     id="g3773" /><g
     id="g3775" /><g
     id="g3777" /><g
     id="g3779" /><g
     id="g3781" /><g
     id="g3783" /><g
     id="g3785" /><g
     id="g3787" /><g
     id="g3789" /><g
     id="g3791" /><path
     id="path33"
     sodipodi:type="arc"
     sodipodi:cx="228.02444"
     sodipodi:cy="228.02499"
     sodipodi:rx="225.33723"
     sodipodi:ry="225.71089"
     sodipodi:start="0"
     sodipodi:end="6.2823307"
     d="M 453.36168,228.02499 A 225.33723,225.71089 0 0 1 228.07259,453.73588 225.33723,225.71089 0 0 1 2.6872307,228.12144 225.33723,225.71089 0 0 1 227.88001,2.3141485 225.33723,225.71089 0 0 1 453.3616,227.8321 l -225.33716,0.19289 z"
     style="fill:#ffffff;fill-opacity:0.87000002;stroke:#000000;stroke-width:2.80596638;stroke-miterlimit:4;stroke-dasharray:none;stroke-opacity:0.91000001" /><g
     id="g3761"
     transform="matrix(-0.94756102,0,0,0.94756102,452.31335,3.7381038)"><path
       d="M 452.41,288.977 C 353.411,229.551 280.494,20.541 279.717,18.454 275.873,8.138 270.166,2.275 262.791,2.275 c -4.538,0 -10.274,2.656 -11.828,15.313 -0.334,2.726 -0.689,5.908 -1.061,9.301 l -5.165,-9.762 C 237.402,3.26 231.648,3.26 229.758,3.26 c -3.213,0 -7.402,1.926 -8.636,7.362 -1.097,4.866 -3.252,17.563 -4.619,26.536 -0.894,5.855 -0.988,11.795 -1.08,17.539 -0.258,16.104 -0.962,26.316 -11.702,33.054 -4.496,2.819 -8.959,5.453 -13.275,7.999 -15.796,9.318 -30.716,18.119 -44.315,34.114 -5.694,6.694 -9.94,13.875 -14.046,20.818 -2.586,4.374 -5.029,8.505 -7.809,12.524 -5.648,8.16 -14.049,12.296 -23.774,17.084 -0.874,0.43 -1.751,0.862 -2.632,1.3 -21.711,10.787 -43.657,21.97 -64.882,32.785 l -11.405,5.81 c -1.638,0.834 -3.325,1.607 -4.957,2.355 -7.988,3.662 -21.358,9.792 -14.933,25.594 4.149,10.201 18.678,21.047 24.732,25.236 18.055,12.492 39.742,18.564 66.304,18.564 9.141,0 18.282,-0.69 27.364,-1.756 -0.109,0.037 -0.221,0.074 -0.33,0.111 -1.76,0.586 -3.528,1.176 -5.299,1.782 -3.413,1.167 -7.938,2.423 -12.729,3.752 -21.96,6.093 -35.495,10.349 -36.996,20.608 -0.523,3.58 0.438,8.845 7.988,13.591 15.295,9.612 42.467,15.825 69.225,15.825 15.996,0 31.732,-2.059 46.772,-6.12 5.306,-1.433 10.954,-3.776 16.935,-6.259 9.717,-4.031 20.73,-8.601 29.785,-8.601 1.741,0 3.33,0.162 4.82,0.492 1.186,2.339 2.418,8.108 2.913,10.429 0.177,0.829 0.342,1.603 0.499,2.291 8.255,36.367 17.092,72.771 26.174,109.972 0.82,3.357 3.829,5.721 7.286,5.721 h 18.438 c 2.729,0 5.24,-1.48 6.562,-3.865 33.839,-61.081 86.718,-106.704 148.892,-128.466 3.009,-1.053 5.022,-3.893 5.022,-7.079 v -18.959 c 0,-2.63 -1.382,-5.071 -3.64,-6.426 z"
       id="path3759"
       inkscape:connector-curvature="0" /></g><path
     inkscape:connector-curvature="0"
     d="m 237.89673,287.30257 -21.8591,-12.62347 v 9.00497 h -111.7279 l 21.75467,-22.98402 c 1.85142,-1.48401 4.27379,-2.52504 6.76564,-2.5827 10.08051,0 16.06678,-0.002 18.2703,-0.007 1.49361,4.25544 5.50573,7.327 10.27535,7.327 6.03389,0 10.93064,-4.89632 10.93064,-10.93239 0,-6.0387 -4.89631,-10.93327 -10.93064,-10.93327 -4.76962,0 -8.78174,3.06981 -10.27535,7.32176 l -18.05625,-0.002 c -4.89368,0 -10.02152,2.68493 -13.28529,5.8325 0.0892,-0.0935 0.18174,-0.19309 -0.005,10e-4 -0.069,0.0777 -23.080994,24.38284 -23.080994,24.38284 -1.84748,1.48181 -4.26855,2.51629 -6.75865,2.57571 H 77.275049 c -1.675361,-8.34968 -9.048654,-14.64045 -17.893296,-14.64045 -10.08401,0 -18.258069,8.17407 -18.258069,18.25501 0,10.08402 8.174059,18.25852 18.258069,18.25852 8.846391,0 16.219684,-6.29601 17.895045,-14.65267 h 12.417698 c 0.0319,0 0.0638,10e-4 0.0961,0 h 27.465754 c 2.48529,0.0633 4.9033,1.09913 6.74903,2.5827 0,0 23.00671,24.30332 23.07792,24.38195 0.18436,0.19529 0.0926,0.0935 0.001,10e-4 3.26377,3.14712 8.3938,5.8303 13.28837,5.8303 l 17.40095,-0.004 v 7.32918 h 21.86477 v -21.86199 h -21.86477 v 7.31956 c 0,0 -4.58308,-0.009 -17.61414,-0.009 -2.49228,-0.0573 -4.91729,-1.09694 -6.76782,-2.58095 l -21.75949,-22.98838 h 84.40503 v 9.01938 z"
     id="path1334"
     style="fill:#ffffff;fill-opacity:1;stroke-width:0.43685868" /></svg>